<svg xmlns="http://www.w3.org/2000/svg" width="256" height="256"><path fill-opacity=".016" d="M0 128.004v128.004l128.25-.254 128.25-.254.254-127.75L257.008 0H0v128.004m.485.496c0 70.4.119 99.053.265 63.672.146-35.38.146-92.98 0-128C.604 29.153.485 58.1.485 128.5" fill="#1976D2" fill-rule="evenodd"/><path fill-opacity=".37" d="M101 1.878c0 1.032.675 2.437 1.5 3.122.837.695 1.5 2.874 1.5 4.931 0 2.028.661 4.56 1.468 5.628.808 1.067 1.483 3.078 1.5 4.468.018 1.391.809 3.637 1.758 4.992s1.779 3.985 1.843 5.845c.07 2.012.788 3.756 1.774 4.308 1.066.597 1.668 2.248 1.689 4.628.017 2.035.692 4.574 1.5 5.641.807 1.068 1.468 3.344 1.468 5.059 0 1.715.661 3.991 1.468 5.059.808 1.067 1.483 3.348 1.5 5.069.018 1.72.707 3.687 1.532 4.372 2.753 2.285 1.656 5.414-3.781 10.784-2.905 2.869-5.967 5.216-6.804 5.216-.838 0-3.049 1.575-4.915 3.5s-3.839 3.5-4.384 3.5c-.545 0-3.569 2.025-6.719 4.5-3.151 2.475-6.141 4.5-6.646 4.5-.505 0-2.23 1.337-3.834 2.972-1.605 1.635-3.273 2.985-3.707 3-1.47.052-6.914 4.498-12.577 10.271-3.098 3.159-6.322 5.747-7.165 5.75-2.665.012-12.964 11.047-13 13.93-.017 1.417-.692 3.451-1.5 4.518-.807 1.068-1.468 3.825-1.468 6.128 0 2.501-.604 4.687-1.5 5.431-.878.728-1.513 2.957-1.532 5.372-.017 2.271-.692 5.002-1.5 6.069-.807 1.068-1.468 3.6-1.468 5.628 0 2.057-.663 4.236-1.5 4.931-.903.75-1.5 2.938-1.5 5.5s-.597 4.75-1.5 5.5c-.948.787-1.5 2.993-1.5 6 0 2.877-.558 5.218-1.413 5.928-.777.645-1.728 3.512-2.112 6.372-.384 2.86-1.15 5.758-1.701 6.44-.552.682-1.238 4.166-1.525 7.741-.295 3.682-1.113 6.991-1.885 7.632-2.049 1.701-1.888 14.749.192 15.547 2.049.786 5.444-2.91 5.444-5.927 0-1.293.661-3.224 1.468-4.292.808-1.067 1.488-3.066 1.513-4.441.024-1.375 1.389-5.151 3.032-8.391S39 207.951 39 207.014c0-.937.9-2.519 2-3.514 1.1-.995 2-2.55 2-3.455 0-1.937 1.888-4.045 3.623-4.045.673 0 2.561 1.125 4.195 2.5 1.634 1.375 3.707 2.5 4.608 2.5.9 0 1.896.675 2.212 1.5.317.825 1.667 1.5 3 1.5 1.334 0 2.684.675 3 1.5.317.825 1.598 1.5 2.847 1.5 1.248 0 2.83.675 3.515 1.5s2.035 1.5 3 1.5c.965 0 2.315.675 3 1.5s2.035 1.5 3 1.5c.965 0 2.354.722 3.086 1.604.733.882 2.25 2.002 3.373 2.488 1.123.485 4.741 2.462 8.041 4.393 3.3 1.93 6.675 3.771 7.5 4.091.825.319 2.694 1.221 4.154 2.002 1.46.782 3.775 1.422 5.143 1.422 1.369 0 2.748.675 3.065 1.5.316.825 1.728 1.5 3.138 1.5s2.822.675 3.138 1.5c.317.825 1.598 1.5 2.847 1.5 1.248 0 2.784.619 3.411 1.375.628.757 2.933 1.662 5.123 2.012 2.189.35 3.981 1.081 3.981 1.625 0 .543 1.129.988 2.51.988 1.38 0 3.28.9 4.222 2 .942 1.1 2.682 2 3.868 2 1.185 0 2.715.675 3.4 1.5s2.202 1.514 3.372 1.532c1.171.017 3.002.692 4.069 1.5 1.068.807 2.925 1.468 4.128 1.468 1.202 0 2.746.675 3.431 1.5s2.063 1.5 3.063 1.5c1.001 0 2.097.45 2.437 1 .932 1.508 3.238 1.204 5.489-.722 1.773-1.518 2.011-2.94 2.011-12 0-10.174.024-10.278 2.393-10.278 1.316 0 2.652.675 2.969 1.5.757 1.973 3.262 1.922 4.031-.082.334-.87.621-3.682.639-6.25.017-2.567.692-5.542 1.5-6.609.852-1.127 1.468-4.116 1.468-7.128 0-3.39.519-5.617 1.5-6.431.964-.8 1.5-3.015 1.5-6.194 0-3.066.571-5.52 1.5-6.449.989-.989 1.5-3.478 1.5-7.306 0-3.941.482-6.206 1.5-7.051 1.024-.85 1.5-3.121 1.5-7.154 0-4.413.392-6.059 1.549-6.503 1.23-.472 1.509-2.102 1.356-7.896-.149-5.629.184-7.678 1.451-8.946.951-.951 1.644-3.252 1.644-5.458 0-2.098.672-5.103 1.494-6.679.821-1.575 1.496-4.946 1.5-7.492.004-2.887.57-5.095 1.506-5.872.948-.787 1.5-2.993 1.5-6s.552-5.213 1.5-6c.943-.783 1.5-2.986 1.5-5.931 0-2.578.661-5.56 1.468-6.628.808-1.067 1.483-3.798 1.5-6.069.018-2.312.657-4.646 1.454-5.307 1.901-1.578 2.97-8.075 2.682-16.302-.169-4.805.213-7.377 1.33-8.972 1.01-1.442 1.566-4.423 1.566-8.391 0-4.251.464-6.54 1.5-7.4 1.063-.882 1.5-3.217 1.5-8.015 0-5.096.371-6.913 1.5-7.347 1.127-.432 1.5-2.242 1.5-7.278 0-4.335.496-7.26 1.403-8.281 1.207-1.359 2.158-7.855 1.731-11.829-.235-2.192-4.584-1.345-7.703 1.5-1.659 1.513-4.233 3.302-5.721 3.978-1.489.675-4.67 3.037-7.07 5.25-2.4 2.212-5.017 4.022-5.815 4.022s-2.744 1.35-4.325 3-3.36 3-3.954 3c-.594 0-3.395 2.025-6.225 4.5-2.829 2.475-5.696 4.5-6.371 4.5-1.761 0-10.431 8.216-10.552 10-.056.825-.169 1.819-.25 2.21-.18.862-14.148-6.125-14.148-7.078 0-.37-2.025-1.78-4.5-3.132s-4.5-2.816-4.5-3.254c0-.437-1.012-1.233-2.25-1.768-3.341-1.445-5.79-3.159-8.898-6.228-1.531-1.512-3.269-2.75-3.86-2.75-.592 0-2.97-1.369-5.284-3.043a1091.722 1091.722 0 0 0-11.208-7.938c-3.85-2.693-7.709-5.52-8.576-6.284-.867-.763-2.33-1.677-3.25-2.03-.921-.353-1.674-1.106-1.674-1.674C107 .464 105.65 0 104 0c-2.268 0-3 .458-3 1.878" fill="#1976D2" fill-rule="evenodd"/><path fill-opacity=".304" d="M102 1.531c0 .843.675 1.791 1.5 2.107 1.008.387 1.5 1.972 1.5 4.834 0 2.744.711 5.162 2 6.801 1.1 1.398 2 3.879 2 5.512 0 1.634.675 3.53 1.5 4.215.848.704 1.5 2.884 1.5 5.015 0 2.43.534 3.976 1.5 4.347.979.375 1.5 1.932 1.5 4.484 0 2.255.635 4.436 1.5 5.154.825.685 1.5 2.71 1.5 4.5s.675 3.815 1.5 4.5c.846.702 1.5 2.882 1.5 5s.654 4.298 1.5 5c.834.692 1.5 2.872 1.5 4.909 0 3.159-.82 4.463-5.955 9.465-3.275 3.19-6.346 5.558-6.825 5.262-.479-.296-3.052 1.465-5.718 3.913-2.667 2.448-5.364 4.451-5.994 4.451-.629 0-2.914 1.575-5.076 3.499-2.163 1.925-4.385 3.5-4.939 3.5-.553.001-3.253 2.019-6 4.485-2.746 2.467-5.527 4.492-6.18 4.5-2.125.028-8.317 7.396-7.745 9.215.78 2.48-2.924 5.73-6.264 5.497-2.403-.168-2.811.182-2.852 2.445-.027 1.452-1.264 4.235-2.75 6.183-1.486 1.948-2.702 4.628-2.702 5.954 0 1.327-.9 3.227-2 4.222-1.216 1.1-2 3.08-2 5.048 0 1.956-.594 3.466-1.5 3.814-.935.358-1.5 1.884-1.5 4.048 0 4.426-1.53 5.422-2.836 1.846-.93-2.548-1.012-2.4-1.085 1.959-.063 3.74.334 4.936 1.921 5.785 1.409.754 2 2.094 2 4.535 0 4.441-1.574 4.426-3.701-.035-.918-1.925-1.979-3.5-2.356-3.5-.378 0-.982 1.845-1.343 4.099-.36 2.255-1.318 4.762-2.128 5.572-.809.809-1.472 3.185-1.472 5.278 0 2.163-.647 4.343-1.5 5.051-.985.818-1.5 3.049-1.5 6.5s-.515 5.682-1.5 6.5c-.948.787-1.5 2.993-1.5 6s-.552 5.213-1.5 6c-.983.816-1.5 3.045-1.5 6.467 0 3.818-.499 5.675-1.856 6.902-1.398 1.266-1.899 3.275-2.033 8.155-.098 3.562.217 6.476.7 6.476 1.977 0 4.189-3.887 4.189-7.36 0-2.369.54-3.91 1.5-4.278 1.009-.388 1.5-1.973 1.5-4.847 0-2.576.595-4.764 1.5-5.515.825-.685 1.5-2.035 1.5-3 0-.965.695-2.332 1.546-3.038.85-.705 1.309-1.898 1.02-2.65-.288-.752.366-2.13 1.455-3.062 1.088-.932 1.979-2.86 1.979-4.284 0-3.07 6.046-8.327 6.839-5.948.72 2.158 6.438 6.982 8.277 6.982.918 0 1.929.675 2.246 1.5.316.825 1.666 1.5 3 1.5 1.333 0 2.683.675 3 1.5.316.825 1.728 1.5 3.138 1.5s2.822.675 3.138 1.5c.317.825 1.553 1.5 2.747 1.5s2.941.9 3.883 2c.942 1.1 2.424 2 3.294 2 .869 0 2.256.675 3.081 1.5.825.825 2.368 1.5 3.428 1.5 1.061 0 1.929.461 1.929 1.025 0 .563 1.013 1.418 2.25 1.9 1.237.481 3.957 2.045 6.044 3.475 2.087 1.43 4.845 2.6 6.128 2.6 1.283 0 2.893.675 3.578 1.5s2.492 1.5 4.015 1.5c1.541 0 3.027.666 3.347 1.5.316.825 1.728 1.5 3.138 1.5s2.822.675 3.138 1.5c.317.825 1.621 1.5 2.898 1.5 1.276 0 2.964.642 3.749 1.428.785.785 3.067 1.735 5.071 2.111 2.004.376 3.644 1.084 3.644 1.572 0 .489 1.055.889 2.345.889 1.29 0 3.16.9 4.155 2 .995 1.1 2.672 2 3.726 2 1.054 0 2.592.675 3.417 1.5.825.825 2.48 1.514 3.678 1.532 1.199.017 3.053.692 4.12 1.5 1.068.807 2.994 1.468 4.282 1.468 1.287 0 2.599.675 2.915 1.5.317.825 1.563 1.5 2.769 1.5 1.206 0 2.68.487 3.275 1.082.776.776 1.672.714 3.169-.221 1.867-1.166 2.115-2.408 2.367-11.832.271-10.136.368-10.541 2.587-10.856 1.268-.179 2.936.197 3.706.836 2.339 1.941 3.489.146 3.489-5.446 0-3.507.511-5.742 1.5-6.563 1.016-.843 1.5-3.106 1.5-7.015 0-4.207.406-5.927 1.5-6.347 1.1-.422 1.5-2.156 1.5-6.5 0-4.343.4-6.078 1.5-6.5 1.117-.428 1.5-2.21 1.5-6.984 0-4.477.452-6.784 1.5-7.654 1.024-.85 1.5-3.121 1.5-7.154 0-4.33.401-6.063 1.5-6.484 1.508-.579 2.064-5.729.935-8.67-.743-1.938-4.192-1.014-5.528 1.481-.684 1.279-1.658 1.724-2.907 1.327-1.273-.404-2.232.064-2.974 1.452-.603 1.126-1.482 2.048-1.954 2.048-1.72 0-1.997-3.191-.934-10.763 1.322-9.428 1.306-8.322.323-21.737-.444-6.05-.893-16.4-.999-23-.235-14.685-.127-14.023-2.03-12.444-.908.754-4.695 1.398-9 1.532l-7.432.229v-2.908c0-2.926-1.301-3.849-2.558-1.815-.372.602-1.749.889-3.059.639-1.798-.344-2.383-.013-2.383 1.347 0 .991-.45 2.08-1 2.42-1.802 1.114-1.048 3.354 1.24 3.68 1.232.176 2.39 1.107 2.573 2.07.506 2.655-4.827 2.414-5.523-.25-.339-1.294-1.364-2-2.907-2-1.452 0-2.383-.586-2.383-1.5 0-.833.889-1.5 2-1.5 2.286 0 2.587-1.815.723-4.364-1.228-1.68-6.552-2.553-9.64-1.582-2.071.651-3.943-5.904-2.025-7.09.904-.558 2.06-.263 3.277.837 1.355 1.224 3.211 1.606 6.635 1.367 3.494-.244 4.903.06 5.32 1.144.432 1.127 2.649 1.516 9.388 1.648 12.364.241 16.723.743 17.134 1.975.195.586 1.259 1.065 2.365 1.065 1.2 0 2.231.845 2.559 2.097.451 1.727 1.074 1.991 3.531 1.5 1.641-.329 4.868-.597 7.173-.597 3.808 0 4.343-.321 5.867-3.518.943-1.977 2.886-4.005 4.435-4.631 10.134-4.089 10.918-5.259 9.922-14.796-.48-4.586-.202-6.538 1.367-9.616 1.263-2.477 1.969-5.866 1.969-9.45 0-3.074.519-6.108 1.153-6.742.634-.634 1.261-4.167 1.392-7.85.175-4.935.661-6.933 1.846-7.596 1.23-.688 1.609-2.486 1.609-7.628 0-4.008.546-7.525 1.35-8.7.743-1.085 1.618-3.684 1.946-5.775.802-5.121-1.18-5.75-6.026-1.912-2.074 1.642-5.57 3.926-7.77 5.076-2.2 1.15-5.12 3.451-6.489 5.114-1.369 1.663-3.307 3.024-4.306 3.024-1 0-3.03 1.259-4.511 2.797-1.482 1.539-4.4 3.676-6.486 4.75-2.086 1.074-4.74 3.19-5.9 4.703-1.159 1.512-2.827 2.751-3.708 2.751-2.542.003-10.1 7.272-10.1 9.714 0 1.192-.445 2.442-.989 2.778-1.593.985-14.935-5.132-15.734-7.213-.27-.704-1.23-1.294-2.134-1.312-.904-.017-3.196-1.592-5.095-3.5-1.898-1.907-4.036-3.468-4.75-3.468-.714 0-2.139-.787-3.168-1.75-6.008-5.624-8.091-7.25-9.29-7.255-.737-.002-2.778-1.352-4.536-3-1.757-1.647-3.782-3.005-4.5-3.018-.717-.013-3.041-1.588-5.164-3.5-2.124-1.912-4.401-3.477-5.061-3.477-.659 0-2.522-1.287-4.139-2.861-1.617-1.573-3.953-3.179-5.19-3.567-1.237-.389-2.25-1.351-2.25-2.139C105 .645 104.325 0 103.5 0s-1.5.689-1.5 1.531m29 79.41c0 .518.481 1.238 1.068 1.601.588.363.838 1.26.557 1.992-.731 1.907 5.331 3.144 6.485 1.323 1.285-2.029 1.078-2.862-.86-3.461-.963-.298-2.531-.959-3.486-1.469-2.226-1.188-3.764-1.183-3.764.014m-3.457 1.99c-.317.512-.118 1.213.441 1.559 1.193.737 3.016-.199 3.016-1.549 0-1.217-2.707-1.225-3.457-.01M179.5 92c-.34.55.309 1 1.441 1 1.132 0 2.059-.45 2.059-1s-.648-1-1.441-1-1.719.45-2.059 1m-36.485 6.691c-.008 1.205.435 2.469.985 2.809 1.273.787 1.273-1.53 0-3.5-.788-1.219-.972-1.09-.985.691M139.5 105c.34.55 1.041 1 1.559 1s.941-.45.941-1-.702-1-1.559-1-1.281.45-.941 1m27.5.583c0 1.766 2.153 1.459 2.771-.395.218-.654-.317-1.188-1.188-1.188-.87 0-1.583.713-1.583 1.583M145.5 118c.34.55.816 1 1.059 1s.441-.45.441-1-.477-1-1.059-1-.781.45-.441 1m8.654 8.552c.191.98.951 1.984 1.692 2.23.86.287 1.22-.194 1-1.334-.191-.98-.951-1.984-1.692-2.23-.86-.287-1.22.194-1 1.334m-101.913 2.434c-.683 1.093-1.241 2.204-1.241 2.469 0 1.089 2.63-.632 3.78-2.474.989-1.584.983-1.981-.031-1.981-.697 0-1.826.894-2.508 1.986M167.5 132c-.729 1.18.217 3 1.559 3 .518 0 .941-.9.941-2 0-2.109-1.455-2.691-2.5-1m-16.271 1.188c.618 1.854 2.771 2.161 2.771.395 0-.87-.713-1.583-1.583-1.583-.871 0-1.406.534-1.188 1.188m-101.15 3.395c.048 1.165.285 1.402.604.605.289-.722.253-1.585-.079-1.917-.332-.332-.568.258-.525 1.312M151.5 143c-.399.646-.276 1.624.274 2.174.667.667 1.242.609 1.726-.174.399-.646.276-1.624-.274-2.174-.667-.667-1.242-.609-1.726.174m6.5 9c0 .55.675 1 1.5 1s1.5-.45 1.5-1-.675-1-1.5-1-1.5.45-1.5 1m4.158 4c0 1.375.227 1.938.504 1.25.278-.687.278-1.812 0-2.5-.277-.687-.504-.125-.504 1.25m-.658 9c.34.55.816 1 1.059 1s.441-.45.441-1-.477-1-1.059-1-.781.45-.441 1M43.032 176.372c-.028 3.331.178 3.699 1.468 2.628 1.867-1.549 1.871-2.128.032-4.559-1.373-1.815-1.47-1.69-1.5 1.931M40 189.406c0 .912.7 1.224 1.989.887 1.094-.286 1.742-.919 1.441-1.407-.873-1.412-3.43-1.025-3.43.52m-3 3.653c0 1.132.45 1.781 1 1.441.55-.34 1-1.266 1-2.059 0-.793-.45-1.441-1-1.441s-1 .927-1 2.059" fill="#1976D2" fill-rule="evenodd"/><path fill-opacity=".227" d="M106.598 4.736c-1.33 1.329-.474 7.152 1.402 9.537 1.1 1.398 2 3.682 2 5.076 0 1.393.52 2.854 1.155 3.246.689.426.884.276.483-.371a1.27 1.27 0 0 1 .398-1.746c.659-.407.989.237.861 1.681-.115 1.287-.097 4.366.038 6.841l.245 4.5.972-3.378.971-3.378 2.879 2.758c1.736 1.664 3.497 2.52 4.438 2.159 1.936-.743 2.056-2.661.167-2.661-1.992 0-2.877-2.959-1.09-3.645.816-.313 1.483-1.196 1.483-1.962 0-1.856-1.637-1.782-2.362.107-.711 1.853-3.638 1.993-3.638.174 0-.729 1.125-2.382 2.5-3.674 3.091-2.904 3.152-4.635.25-7.056-2.422-2.021-5.288-2.501-6.192-1.038-.308.498-1.498.661-2.644.361-1.748-.457-1.986-1.069-1.476-3.79.435-2.316.201-3.402-.817-3.792-.784-.301-1.694-.278-2.023.051M226 8c-1.925 1.62-4.014 2.958-4.643 2.973-.629.015-1.402.702-1.719 1.527-.316.825-1.264 1.5-2.107 1.5-1.711 0-5.531 3.453-5.531 5 0 .55 1.773 1 3.941 1s4.219.45 4.559 1c.34.55 1.491 1 2.559 1 2.722 0 2.422 2.649-.619 5.468-2.179 2.02-2.459 2.912-1.881 5.996.888 4.734 2.857 4.012 3.243-1.189.227-3.042.795-4.198 2.25-4.578 1.673-.438 1.948-1.408 1.948-6.881 0-5.134.388-6.704 2-8.084 2.228-1.908 2.797-7.749.75-7.705-.687.015-2.825 1.353-4.75 2.973M110.218 9.154c.246.741 1.25 1.501 2.23 1.692 1.14.22 1.621-.14 1.334-1-.246-.741-1.25-1.501-2.23-1.692-1.14-.22-1.621.14-1.334 1M123.5 19c.34.55 1.266 1 2.059 1 .793 0 1.441-.45 1.441-1s-.927-1-2.059-1c-1.132 0-1.781.45-1.441 1m5.5 3.09c0 1.149-.938 2.849-2.085 3.778l-2.086 1.689 2.722 2.721c2.893 2.893 3.381 3.069 5.867 2.115 2.347-.901 1.916-3.206-.668-3.573-3.69-.525-2.802-3.345 1-3.174 1.787.08 3.25-.257 3.25-.75S135.927 24 134.617 24c-1.543 0-2.568-.706-2.907-2-.69-2.641-2.71-2.574-2.71.09m73.144 2.474c-2.396 2.44-5.096 4.436-6 4.436-.904 0-2.901 1.575-4.437 3.5-1.536 1.925-3.687 3.5-4.781 3.5-1.094 0-2.248.675-2.564 1.5-.317.825-.978 1.5-1.469 1.5-2.068 0-5.316 4.534-5.052 7.052.256 2.433.041 2.585-3.033 2.137-1.819-.265-4.248-1.095-5.396-1.844-1.862-1.215-2.526-1.045-6.15 1.58-2.234 1.619-4.359 3.423-4.721 4.009-.363.586-1.665 1.066-2.894 1.066s-4.69 1.326-7.691 2.947c-6.234 3.367-11.397 5.896-18.206 8.919-3.963 1.759-4.75 2.553-4.75 4.792 0 1.477-.788 3.584-1.75 4.683-1.589 1.814-1.596 1.942-.071 1.387 4.481-1.63 9.068-1.947 9.851-.68.625 1.011 1.654.668 4.498-1.502 2.789-2.127 3.882-2.501 4.479-1.534 1.144 1.85 3.993.414 3.993-2.012 0-2.378 1.904-3.337 6.36-3.205 1.727.051 4.183.121 5.458.155 1.274.034 4.372 1.209 6.884 2.611 2.512 1.402 5.126 2.335 5.809 2.073 1.615-.62.674-5.761-1.323-7.231-1.069-.787-1.165-1.299-.339-1.809 1.467-.907 1.509-6.308.053-6.793-.604-.202-.909-1.477-.679-2.834l.42-2.467 1.176 2.5c.647 1.375 1.62 3.175 2.163 4 9.11 13.853 10.151 19.832 4.424 25.395-1.977 1.92-3.301 3.966-2.941 4.548.359.581 2.821 1.057 5.472 1.057 2.981 0 5.275.551 6.017 1.445 1.309 1.577 11.817 4.117 12.832 3.103.344-.345-.366-.887-1.58-1.204C192.864 90.47 193.451 88 197 88c3.41 0 4.193-2.487 1.092-3.471-1.049-.333-2.16-1.263-2.468-2.067-.309-.804-1.273-1.462-2.144-1.462-1.799 0-4.88-6.516-4.074-8.617 1.071-2.789 3.592-1.502 3.657 1.867.058 2.95.147 3.042.968 1 .969-2.411 2.443-2.91 3.507-1.188.361.584 1.738 1.472 3.059 1.975C202.968 76.938 203.944 79 202 79c-.55 0-1 .45-1 1s.675 1 1.5 1 1.5-.675 1.5-1.5.659-1.5 1.465-1.5c.805 0 1.939-.886 2.518-1.968 1.718-3.211 5.638-7.032 7.213-7.032.806 0 2.034-1.237 2.728-2.75a231.967 231.967 0 0 1 2.669-5.581c.774-1.557 1.407-5.495 1.407-8.75 0-5.462-.174-5.921-2.25-5.951-2.171-.03-2.183-.082-.352-1.469 1.564-1.183 1.676-1.704.636-2.958-.781-.941-2.132-1.304-3.539-.95-1.252.314-2.546.136-2.875-.396-.328-.532.297-1.202 1.391-1.488 2.665-.696 2.523-2.996-.261-4.229-1.328-.588-2.13-1.71-1.956-2.737.388-2.298-.921-2.203-3.564.259-2.761 2.572-4.23 2.54-4.23-.094 0-1.284.81-2.305 2.097-2.642 1.702-.445 1.989-1.085 1.525-3.406-.423-2.111-.186-2.858.903-2.858.811 0 1.475.45 1.475 1s.675 1 1.5 1c2.088 0 1.875-.866-.75-3.056-3.272-2.73-4.749-2.327-9.606 2.62M139 28c0 .55.45 1 1 1s1-.45 1-1-.45-1-1-1-1 .45-1 1m2.5 3c.34.55 1.041 1 1.559 1s.941-.45.941-1-.702-1-1.559-1-1.281.45-.941 1m6.5 2.941c0 .518.45 1.219 1 1.559.55.34 1-.084 1-.941S149.55 33 149 33s-1 .423-1 .941m-21.75.726c-2.183.873-1.348 2.333 1.333 2.333 1.55 0 2.425-.475 2.188-1.187-.469-1.407-1.792-1.838-3.521-1.146M116 35.918c0 .505-.22 1.518-.489 2.25-.27.733-.045 2.007.5 2.832.879 1.333 1.098 1.333 1.974 0 1.522-2.319 1.224-6-.485-6-.825 0-1.5.413-1.5.918M208 36c0 .55.45 1 1 1s1-.45 1-1-.45-1-1-1-1 .45-1 1m-63.768 2c.687 1.1 1.816 2 2.509 2 .765 0 .475-.784-.741-2-1.1-1.1-2.229-2-2.508-2-.28 0 .053.9.74 2M151 37c0 .55.45 1 1 1s1-.45 1-1-.45-1-1-1-1 .45-1 1m54 3c0 .55.45 1 1 1s1-.45 1-1-.45-1-1-1-1 .45-1 1m-21.727 1.831c-1.325.819-.589 5.169.875 5.169 1.403 0 2.121-2.696 1.171-4.394-.478-.854-1.371-1.192-2.046-.775m-46.73 1.1c-.683 1.105.894 2.299 1.818 1.375.95-.951.773-2.306-.302-2.306-.518 0-1.2.419-1.516.931m62.988.362c-.428.986-.497 2.074-.155 2.417 1.016 1.015 1.835-.411 1.367-2.382-.414-1.747-.468-1.748-1.212-.035M223 43.059c0 .582.45.781 1 .441s1-.816 1-1.059-.45-.441-1-.441-1 .477-1 1.059m-92 3c0 .582.45.781 1 .441s1-.816 1-1.059-.45-.441-1-.441-1 .477-1 1.059m72 4.5c0 .857.457 1.276 1.016.931.559-.346.758-1.047.441-1.559-.857-1.387-1.457-1.129-1.457.628m8 1.906c0 1.441.83 2.909 2 3.535 1.1.589 2 1.799 2 2.69 0 1.43.235 1.408 2-.19 2.723-2.464 2.685-5.492-.059-4.774-1.513.395-2.207-.027-2.617-1.594-.776-2.969-3.324-2.714-3.324.333M205 55c0 1.289.506 1.998 1.25 1.75.688-.229 1.25-1.017 1.25-1.75 0-.733-.562-1.521-1.25-1.75-.744-.248-1.25.461-1.25 1.75m-24 .5c0 .933.944 1.5 2.5 1.5s2.5-.567 2.5-1.5-.944-1.5-2.5-1.5-2.5.567-2.5 1.5m11.177.053c.452 2.172 2.227 2.305 2.633.197.21-1.095-.28-1.75-1.31-1.75-.961 0-1.512.647-1.323 1.553M199 57.5c0 .825.45 1.5 1 1.5s1-.675 1-1.5-.45-1.5-1-1.5-1 .675-1 1.5m-14.277 2.111c-.398.397-.723 1.772-.723 3.056 0 2.18.386 2.333 5.893 2.333 7.341 0 9.311-2.352 2.32-2.771-2.647-.158-4.989-.907-5.645-1.806-.618-.844-1.448-1.21-1.845-.812M208 61.383c0 .761.9 1.619 2 1.907 2.794.73 2.486 1.926-1.006 3.913C206.092 68.855 204.965 71 207 71c.55 0 1-.45 1-1s.697-1 1.548-1c2.095 0 4.637-6.072 3.244-7.75-1.398-1.686-4.792-1.591-4.792.133m-9.75 3.279c-.687.278-1.236 1.255-1.218 2.171.029 1.549.121 1.55 1.289.014.692-.909 2.365-1.86 3.718-2.114l2.461-.461-2.5-.057c-1.375-.031-3.062.17-3.75.447m-46.562 4.984c-1.305 1.304-.682 2.354 1.395 2.354 1.164 0 1.909-.524 1.688-1.187-.487-1.462-2.157-2.094-3.083-1.167m64.95 1.854c-.316.825-1.264 1.5-2.107 1.5-.842 0-1.531.45-1.531 1s.648 1 1.441 1c2.341 0 3.006 2.2 1.089 3.602-1.057.772-2.984 1.057-4.755.703-2.488-.498-2.92-.302-2.626 1.193.193.983 1.165 2.286 2.16 2.895 1.429.875 2.081.74 3.11-.643.716-.963 2.264-1.75 3.441-1.75 1.927 0 2.14-.547 2.14-5.5 0-5.26-1.138-7.188-2.362-4m-56.273 1.124c-.846.347-.846 1.088 0 2.913 2.004 4.322 4.755 2.545 3.028-1.955-.623-1.625-1.064-1.764-3.028-.958M155 77c0 .55.45 1 1 1s1-.45 1-1-.45-1-1-1-1 .45-1 1m-31 6.559c0 .857.45 1.281 1 .941.55-.34 1-1.041 1-1.559s-.45-.941-1-.941-1 .702-1 1.559M111 85.5c.685.825 1.977 1.486 2.872 1.468 1.368-.027 1.318-.266-.313-1.5-2.527-1.911-4.155-1.891-2.559.032m-5.305 2.557c-.342 1.309-.111 1.915.634 1.667 1.438-.479 2.189-3.724.861-3.724-.526 0-1.199.926-1.495 2.057M93.362 97.5c-.317.825-1.442 1.5-2.5 1.5-1.059 0-2.184.675-2.5 1.5-.317.825-1.09 1.515-1.719 1.533-1.258.037-5.643 3.438-5.643 4.377 0 1.346 2.82.446 4.534-1.447 1.013-1.12 2.546-1.898 3.404-1.728.859.171 2.023-.6 2.587-1.713.564-1.112 2.001-2.163 3.195-2.334 1.413-.204 1.977-.814 1.618-1.75-.718-1.871-2.247-1.839-2.976.062m86.277 1.194c-1.126 1.126-.685 2.306.861 2.306.825 0 1.5-.423 1.5-.941 0-1.261-1.562-2.164-2.361-1.365M71.404 114.389c-.72 1.876.27 3.611 2.061 3.611.859 0 1.157-.731.821-2.016-.699-2.673-2.158-3.481-2.882-1.595M99 114.5c0 .825.45 1.5 1 1.5s1-.675 1-1.5-.45-1.5-1-1.5-1 .675-1 1.5M81 117c-1.207.78-1.049.972.809.985 1.288.008 2.036-.427 1.691-.985-.743-1.202-.639-1.202-2.5 0m10 3.5c0 .917.484 1.505 1.075 1.308.591-.197 1.075-.785 1.075-1.308s-.484-1.111-1.075-1.308c-.591-.197-1.075.391-1.075 1.308m8.154 5.938c.191.917.796 1.644 1.346 1.615 1.484-.079 1.212-2.316-.346-2.835-.841-.28-1.215.177-1 1.22M68 127c0 .55.45 1 1 1s1-.45 1-1-.45-1-1-1-1 .45-1 1m6.417.357c-.347.904-1.258 1.643-2.024 1.643-.819 0-1.393 1.03-1.393 2.5 0 1.375.338 2.485.75 2.467.929-.04 4.359-7.191 3.744-7.807-.246-.245-.731.293-1.077 1.197M80 128.441c0 2.668 1.487 4.198 2.495 2.566.813-1.315-.339-5.007-1.562-5.007-.513 0-.933 1.098-.933 2.441m81-1.382c0 .582.45.781 1 .441s1-.816 1-1.059-.45-.441-1-.441-1 .477-1 1.059m-102.417 8.807c-.431.697-.513 1.537-.183 1.867.895.895 1.871-.421 1.387-1.871-.338-1.016-.574-1.016-1.204.004m72.5 3.417c.23.156 1.204.886 2.167 1.622 1.498 1.147 1.75 1.106 1.75-.283 0-.997-.835-1.622-2.167-1.622-1.191 0-1.979.127-1.75.283m-73.556 3.673c-.325.526-1.304.683-2.174.349-1.286-.493-1.439-.156-.816 1.794.422 1.32.838 7.303.924 13.295.14 9.743-.035 10.943-1.653 11.366-.994.26-1.808.946-1.808 1.523 0 .578.282.768.627.424.345-.345 1.933.048 3.529.874 3.103 1.604 4.844 1.194 4.844-1.14 0-.793.45-1.441 1-1.441 1.352 0 1.28 6.709-.081 7.55-.595.368-.808 1.755-.475 3.084.45 1.79-.047 3.02-1.919 4.755-1.389 1.287-2.525 3.076-2.525 3.976 0 .899-.675 1.635-1.5 1.635s-1.5.505-1.5 1.122c0 .826-.355.828-1.342.009-1.592-1.321-2.658-.505-2.658 2.036 0 1.132.724 1.833 1.893 1.833 1.041 0 2.152.675 2.469 1.5.316.825 1.489 1.5 2.607 1.5 1.139 0 2.031.659 2.031 1.5 0 .938.948 1.5 2.531 1.5 1.393 0 2.791.675 3.107 1.5.321.837 1.808 1.5 3.362 1.5s3.041.663 3.362 1.5c.316.825 1.745 1.5 3.174 1.5 2.106 0 2.483-.364 1.991-1.916-.335-1.054-.138-2.206.436-2.561.574-.355.769-1.743.432-3.084-.337-1.343-.171-2.439.369-2.439 1.73 0 2.466 8.081.9 9.884-1.914 2.205-1.008 4.116 1.951 4.116 1.346 0 2.721.711 3.054 1.581.352.916 1.356 1.384 2.388 1.114 1.061-.277 2.621.5 3.856 1.92 1.14 1.312 2.714 2.385 3.497 2.385.783 0 1.573.338 1.757.75.541 1.218 6.84 4.25 8.831 4.25 1.009 0 2.044-.562 2.299-1.25.261-.703.944-.046 1.559 1.5.795 1.997 1.794 2.75 3.651 2.75 1.406 0 2.815.675 3.131 1.5.321.835 1.807 1.5 3.352 1.5 1.936 0 2.935.606 3.3 2 .397 1.518 1.364 2 4.009 2 2.177 0 3.703.564 4.063 1.5.329.858 1.821 1.5 3.484 1.5 1.6 0 3.469.675 4.154 1.5s2.315 1.5 3.622 1.5c1.447 0 2.378.587 2.378 1.5 0 .986.986 1.5 2.878 1.5 1.582 0 3.437.675 4.122 1.5s1.977 1.503 2.872 1.506c.896.004 2.917.679 4.492 1.5 1.576.822 3.565 1.494 4.422 1.494.856 0 2.267.618 3.135 1.373 2.036 1.771 8.183 2.844 9.936 1.735.931-.589 1.107-1.604.56-3.233-.439-1.306-.673-5.145-.521-8.53.165-3.678-.245-7.098-1.02-8.5-.712-1.29-1.197-2.84-1.076-3.445.273-1.371-6.255-8.4-7.8-8.4-.651 0-.883.793-.545 1.859.332 1.046-.037 2.379-.843 3.048-1.573 1.305-2.038.843-2.932-2.915-.699-2.939-.012-4.254 3.07-5.877 2.983-1.571 2.859-3.115-.25-3.115-2.241 0-2.5-.405-2.5-3.918 0-4.429-.789-7.082-2.107-7.082-.491 0-.893.9-.893 2 0 1.518-.662 1.997-2.75 1.986-5.144-.025-7.25-1.072-7.25-3.603 0-2.894-1.565-3.156-2.29-.383-.315 1.204-1.364 2-2.635 2-1.729 0-2.004.435-1.513 2.391.674 2.687-1.244 4.602-2.176 2.172-.33-.859-1.452-1.563-2.493-1.563-3.092 0-2.375-3.644.857-4.353 2.962-.649 6.747-5.034 5.744-6.656-.336-.545-1.648-.991-2.914-.991-1.887 0-2.22.43-1.847 2.383.547 2.862-1.575 4.533-3.135 2.469-1.797-2.378-6.098.351-6.098 3.869 0 3.528-2.604 3.735-3.515.279-.94-3.564.006-10 1.469-10 1.266 0 4.546-3.123 4.546-4.329 0-1.615-4.038-.466-5.547 1.579-1.235 1.673-1.794 1.898-2.182.875-.286-.756-1.365-2.219-2.396-3.25-2.671-2.671-2.389-4.875.625-4.875 2.798 0 2.943-.304 1.465-3.066-1.497-2.797-3.965-2.445-3.965.566 0 1.375-.45 2.5-1 2.5s-1 1.323-1 2.941c0 1.618.45 3.219 1 3.559 1.545.955 1.181 3.5-.5 3.5-.825 0-2.367.867-3.426 1.926-1.196 1.196-2.711 1.72-4 1.383-2.226-.582-2.694-1.808-1.074-2.809 1.198-.74 1.349-4.5.18-4.5-.45 0-1.862 1.199-3.137 2.665-1.883 2.166-2.104 3.008-1.18 4.487.625 1.001 1.076 3.514 1.001 5.584-.099 2.745-.262 3.093-.6 1.287-.254-1.363-1.478-3.419-2.72-4.57-1.241-1.15-2.512-2.735-2.824-3.522-.486-1.224-.721-1.215-1.629.069-1.558 2.203-1.332 3.124.909 3.71 3.652.955 1.786 6.29-2.2 6.29-1.431 0-1.8-.814-1.8-3.965 0-2.972-.513-4.239-2.048-5.061-1.42-.76-1.859-1.692-1.431-3.04.409-1.29.064-2.156-1.029-2.575-.905-.348-2.046-1.687-2.537-2.976-.57-1.499-1.426-2.139-2.375-1.775-2.266.869-3.685-.427-2.633-2.404.499-.937 1.173-2.55 1.498-3.583.489-1.555 1.279-1.787 4.573-1.345 2.304.309 4.257.088 4.635-.523.839-1.358-2.418-3.753-5.104-3.753-1.137 0-2.63-.9-3.317-2-.687-1.1-1.695-2-2.24-2-1.584 0-1.145 4.004.508 4.638 2.157.828 1.847 3.006-.682 4.777-2.981 2.088-4.818.399-4.818-4.43 0-2.367-.538-3.978-1.446-4.326-1.033-.396-1.288-1.526-.892-3.964.499-3.077.177-3.683-3.304-6.199-3.974-2.873-8.358-8.621-8.358-10.958 0-.728-.704-1.594-1.563-1.924-.86-.33-1.329-.98-1.042-1.444.618-1-2.118-5.17-3.393-5.17-.486 0-1.15.43-1.475.956M105.5 146c.34.55.816 1 1.059 1s.441-.45.441-1-.477-1-1.059-1-.781.45-.441 1m-27.031 2.05c-.95 1.538.351 2.53 1.635 1.246.718-.718.735-1.277.052-1.699-.56-.346-1.319-.142-1.687.453M79.5 158c-.34.55.084 1 .941 1S82 158.55 82 158s-.423-1-.941-1-1.219.45-1.559 1m116.5 1.727c0 1.953 1.773 4.273 3.266 4.273.477 0 .724-1.234.55-2.741-.369-3.198-3.816-4.581-3.816-1.532m-5 5.313c0 2.31.381 3.028 1.4 2.637 1.034-.397 1.4.369 1.4 2.931v3.468l-2.352-2.538c-1.294-1.396-2.799-2.538-3.346-2.538-.546 0-1.584-1.238-2.307-2.75-1.733-3.627-5.789-4.373-5.81-1.07-.023 3.412-.912 4.206-6.985 6.232l-5.5 1.836-.197 5.483c-.17 4.725.079 5.556 1.794 6.005 1.787.467 1.935 1.125 1.445 6.423-.433 4.683-.235 6.021.956 6.479.865.332 1.502 1.824 1.502 3.519 0 1.618.719 4.333 1.598 6.032 1.305 2.523 1.47 4.876.901 12.821l-.696 9.73 3.669.689c2.019.378 4.313.935 5.099 1.237 1.132.434 1.429-.593 1.429-4.937 0-3.655.5-5.899 1.5-6.729 1.024-.85 1.5-3.121 1.5-7.154 0-4.33.401-6.063 1.5-6.484 1.094-.42 1.5-2.14 1.5-6.347 0-3.909.484-6.172 1.5-7.015 1.041-.864 1.5-3.16 1.5-7.5 0-4.519.445-6.624 1.603-7.586 1.248-1.035 1.515-2.717 1.205-7.584-.44-6.915-.387-6.798-3.558-7.773-2.006-.617-2.25-.348-2.25 2.483M170.5 164c-.34.55.11 1 1 1s1.34-.45 1-1c-.34-.55-.79-1-1-1-.21 0-.66.45-1 1m-66.268 2c1.172 1.877 2.768 2.701 2.768 1.429 0-.747-2.688-3.429-3.437-3.429-.319 0-.018.9.669 2M95 167.09c0 1.41 4.259 4.868 5.245 4.259 1.362-.842.79-4.122-.827-4.742-2.441-.937-4.418-.721-4.418.483m19.015-.34c.009.412.452 1.425.985 2.25.784 1.213.972 1.069.985-.75.008-1.238-.435-2.25-.985-2.25s-.993.338-.985.75M86.5 168c.34.55 1.716 1 3.059 1 1.343 0 2.441-.45 2.441-1s-1.377-1-3.059-1c-1.785 0-2.802.417-2.441 1m41.5 1.5c0 .825.73 1.5 1.622 1.5 1.329 0 1.398-.271.378-1.5-.685-.825-1.415-1.5-1.622-1.5-.208 0-.378.675-.378 1.5m8.272 3.332c-1.403.867-.363 6.1 1.228 6.18 1.264.063 1.941-4.971.82-6.092-.46-.46-1.382-.5-2.048-.088M102.5 179c-.34.55-.141 1 .441 1s1.059-.45 1.059-1-.198-1-.441-1-.719.45-1.059 1m6.5 1c0 .55.477 1 1.059 1s.781-.45.441-1-.816-1-1.059-1-.441.45-.441 1m-19 2.784c0 2.496 5.065 5.216 9.713 5.216 4.43 0 7.834-1.987 7.004-4.087-.412-1.041-.58-.952-.638.337-.113 2.507-3.545 2.185-5.336-.5-1.35-2.023-1.815-2.133-4.622-1.087-2.571.958-3.121.914-3.121-.25 0-.777-.675-1.413-1.5-1.413s-1.5.803-1.5 1.784m-42.333-.117c-1.263 1.262-.745 7.527.583 7.063.688-.241 1.132-1.118.987-1.95-.145-.832.418-2.078 1.25-2.769.832-.691 1.513-1.651 1.513-2.133 0-1.025-3.356-1.188-4.333-.211m64 2c-.367.366-.667 1.529-.667 2.583 0 2.593 2.415 1.67 2.82-1.078.309-2.103-.789-2.87-2.153-1.505m29.583 2.277c-1.238 1.032-2.25 2.367-2.25 2.966 0 2.013 4.725 1.137 6.259-1.16 1.483-2.22 1.531-2.225 3.622-.345 2.105 1.892 2.119 1.887 2.119-.75 0-2.407-.35-2.652-3.75-2.622-2.16.019-4.704.829-6 1.911m-26.07 12.113c-1.641.658-2.227 1.589-2 3.177.508 3.566 3.417 3.361 4.704-.332 1.576-4.521 1.549-4.55-2.704-2.845m36.82 1.86c0 1.228.646 2.083 1.573 2.083.932 0 1.442-.68 1.25-1.667-.486-2.509-2.823-2.853-2.823-.416m-32.406 5.195c-1.928 3.864-1.451 4.6 1.97 3.041 1.815-.827 2.479-1.809 2.254-3.334-.496-3.373-2.463-3.237-4.224.293M102 208c0 .55.423 1 .941 1s1.219-.45 1.559-1c.34-.55-.084-1-.941-1s-1.559.45-1.559 1m7 .059c0 .582.45.781 1 .441s1-.816 1-1.059-.45-.441-1-.441-1 .477-1 1.059m22.5.941c.34.55.816 1 1.059 1s.441-.45.441-1-.477-1-1.059-1-.781.45-.441 1m18 2c-.352.569.509 1 2 1s2.352-.431 2-1c-.34-.55-1.24-1-2-1s-1.66.45-2 1m-31.5 2.917c0 1.228.646 2.083 1.573 2.083.932 0 1.442-.68 1.25-1.667-.486-2.509-2.823-2.853-2.823-.416m37 .083c0 1.333.667 2 2 2 2.373 0 2.684-2.523.418-3.393-2.294-.88-2.418-.809-2.418 1.393m-29 3c0 1.333.667 2 2 2s2-.667 2-2-.667-2-2-2-2 .667-2 2m-14 3c0 .55.9 1 2 1s2-.45 2-1-.9-1-2-1-2 .45-2 1m-86.361 8.694c-.351.352-.639 1.969-.639 3.595 0 2.514.224 2.77 1.5 1.711.825-.685 1.5-2.063 1.5-3.063 0-1.985-1.343-3.261-2.361-2.243" fill="#1976D2" fill-rule="evenodd"/></svg>